<svg width="117" height="34" viewBox="0 0 117 34" fill="none" xmlns="http://www.w3.org/2000/svg">
<path d="M54.3207 22.4057C54.4999 22.4057 54.6548 22.4749 54.7851 22.6133L56.0807 24.018C55.3637 24.9056 54.4795 25.5856 53.4284 26.0578C52.3855 26.5301 51.1307 26.7663 49.6639 26.7663C48.3521 26.7663 47.1706 26.5424 46.1195 26.0945C45.0765 25.6466 44.1843 25.0237 43.4428 24.2257C42.7013 23.4277 42.1309 22.4749 41.7317 21.3674C41.3405 20.2599 41.145 19.0507 41.145 17.7396C41.145 16.4123 41.365 15.199 41.805 14.0996C42.245 12.9922 42.8643 12.0395 43.6628 11.2414C44.4613 10.4434 45.4147 9.8245 46.5228 9.38474C47.6391 8.93694 48.8695 8.71295 50.2139 8.71295C51.5258 8.71295 52.6707 8.92466 53.6484 9.34817C54.6344 9.76347 55.4777 10.3172 56.1784 11.0094L55.0785 12.5362C55.0133 12.6339 54.9277 12.7194 54.8218 12.7927C54.724 12.866 54.5855 12.9026 54.4063 12.9026C54.2188 12.9026 54.0273 12.8294 53.8318 12.6827C53.6362 12.5362 53.3877 12.3774 53.0862 12.2064C52.7847 12.0353 52.4017 11.8766 51.9373 11.73C51.481 11.5835 50.8984 11.5102 50.1895 11.5102C49.3584 11.5102 48.5924 11.6567 47.8917 11.9498C47.1991 12.2349 46.6002 12.6461 46.095 13.1835C45.598 13.721 45.2069 14.3765 44.9217 15.1501C44.6446 15.9156 44.5062 16.7787 44.5062 17.7396C44.5062 18.7331 44.6446 19.6167 44.9217 20.3902C45.2069 21.1638 45.5899 21.8153 46.0706 22.3445C46.5513 22.8739 47.1177 23.281 47.7695 23.5661C48.4213 23.843 49.1221 23.9814 49.8717 23.9814C50.3199 23.9814 50.7233 23.9569 51.0817 23.908C51.4484 23.8592 51.7825 23.7818 52.084 23.676C52.3936 23.5701 52.6829 23.4358 52.9518 23.2729C53.2288 23.1019 53.5018 22.8943 53.7706 22.65C53.8521 22.5767 53.9377 22.5197 54.0273 22.479C54.117 22.43 54.2148 22.4057 54.3207 22.4057Z" fill="#969FA4"/>
<path d="M67.7382 26.5708H66.3816C66.0964 26.5708 65.8722 26.5301 65.7093 26.4487C65.5464 26.3591 65.4242 26.1841 65.3427 25.9235L65.0737 25.0318C64.7559 25.3168 64.4423 25.5692 64.1326 25.7892C63.8311 26.0009 63.5175 26.18 63.1915 26.3266C62.8656 26.4731 62.5192 26.5831 62.1526 26.6564C61.786 26.7296 61.3785 26.7663 60.9304 26.7663C60.4007 26.7663 59.9119 26.6971 59.4637 26.5586C59.0155 26.4121 58.6285 26.1963 58.3026 25.9113C57.9848 25.6263 57.7363 25.272 57.557 24.8486C57.3777 24.4252 57.2881 23.9325 57.2881 23.3706C57.2881 22.8983 57.4103 22.4342 57.6548 21.9782C57.9074 21.514 58.3229 21.0987 58.9014 20.7322C59.48 20.3576 60.25 20.0482 61.2115 19.8039C62.173 19.5596 63.3667 19.4212 64.7926 19.3886V18.6557C64.7926 17.817 64.6134 17.1981 64.2548 16.7992C63.9045 16.392 63.3912 16.1884 62.7148 16.1884C62.2259 16.1884 61.8186 16.2454 61.4926 16.3594C61.1667 16.4734 60.8815 16.6037 60.637 16.7502C60.4007 16.8887 60.1807 17.0149 59.977 17.1289C59.7733 17.2429 59.5493 17.2999 59.3048 17.2999C59.1011 17.2999 58.9259 17.247 58.7792 17.1411C58.6326 17.0352 58.5144 16.905 58.4248 16.7502L57.8747 15.7853C59.317 14.4661 61.0567 13.8065 63.0937 13.8065C63.8271 13.8065 64.4789 13.9286 65.0493 14.1729C65.6279 14.4091 66.1167 14.743 66.516 15.1745C66.9153 15.598 67.2167 16.107 67.4205 16.7014C67.6323 17.2959 67.7382 17.9473 67.7382 18.6557V26.5708ZM61.8715 24.6898C62.1811 24.6898 62.4663 24.6613 62.7271 24.6043C62.9878 24.5473 63.2323 24.4618 63.4604 24.3478C63.6967 24.2338 63.9207 24.0954 64.1326 23.9325C64.3526 23.7615 64.5726 23.562 64.7926 23.334V21.2208C63.9126 21.2615 63.1752 21.3389 62.5804 21.4529C61.9937 21.5587 61.5211 21.6972 61.1626 21.8682C60.8041 22.0392 60.5474 22.2387 60.3926 22.4667C60.2459 22.6948 60.1726 22.9431 60.1726 23.2118C60.1726 23.7411 60.3274 24.1198 60.637 24.3478C60.9548 24.5758 61.3663 24.6898 61.8715 24.6898Z" fill="#969FA4"/>
<path d="M70.2178 26.5708V14.0386H71.99C72.2996 14.0386 72.5155 14.0956 72.6378 14.2096C72.76 14.3236 72.8415 14.519 72.8822 14.7959L73.0656 16.3105C73.5137 15.5369 74.0393 14.9262 74.6423 14.4783C75.2452 14.0305 75.9216 13.8065 76.6712 13.8065C77.2905 13.8065 77.8038 13.949 78.2112 14.2341L77.82 16.4937C77.7956 16.6403 77.7426 16.7462 77.6611 16.8113C77.5797 16.8683 77.4697 16.8968 77.3312 16.8968C77.209 16.8968 77.0419 16.8683 76.83 16.8113C76.6182 16.7543 76.3371 16.7258 75.9867 16.7258C75.3593 16.7258 74.8215 16.9009 74.3734 17.251C73.9252 17.5931 73.5463 18.098 73.2367 18.7657V26.5708H70.2178Z" fill="#969FA4"/>
<path d="M88.5318 26.5708C88.141 26.5708 87.8846 26.3876 87.7618 26.0212L87.5178 24.8119C87.2573 25.1051 86.9843 25.3697 86.6988 25.6059C86.4134 25.8421 86.1039 26.0456 85.7695 26.2166C85.4442 26.3876 85.0899 26.5179 84.7065 26.6075C84.3315 26.7052 83.924 26.7541 83.4842 26.7541C82.7998 26.7541 82.1724 26.6115 81.602 26.3266C81.0317 26.0416 80.5388 25.6304 80.1232 25.0929C79.7158 24.5473 79.398 23.8755 79.1698 23.0774C78.9498 22.2794 78.8398 21.3674 78.8398 20.3414C78.8398 19.4131 78.9661 18.5499 79.2187 17.7519C79.4713 16.9538 79.8339 16.2617 80.3065 15.6753C80.7791 15.089 81.3454 14.633 82.0054 14.3073C82.6654 13.9734 83.4071 13.8065 84.2302 13.8065C84.9306 13.8065 85.5297 13.9205 86.0267 14.1486C86.5238 14.3684 86.9677 14.6656 87.3585 15.0402V8.4198H90.3781V26.5708H88.5318ZM84.5107 24.36C85.138 24.36 85.6724 24.2297 86.1122 23.9692C86.552 23.7085 86.9677 23.338 87.3585 22.8576V17.2388C87.0166 16.8235 86.6416 16.5304 86.2342 16.3594C85.835 16.1884 85.4035 16.1029 84.9389 16.1029C84.4825 16.1029 84.0668 16.1884 83.6917 16.3594C83.3258 16.5304 83.0121 16.7909 82.751 17.1411C82.4984 17.4831 82.3028 17.9229 82.1643 18.4603C82.0258 18.9896 81.9565 19.6167 81.9565 20.3414C81.9565 21.0743 82.0135 21.6972 82.1276 22.2102C82.2499 22.7151 82.421 23.1304 82.6409 23.4561C82.861 23.7737 83.1299 24.0058 83.4477 24.1523C83.7655 24.2908 84.1199 24.36 84.5107 24.36Z" fill="#969FA4"/>
<path d="M98.3423 13.8431C99.1323 13.8431 99.8575 13.9694 100.517 14.2218C101.186 14.4742 101.76 14.8447 102.241 15.3333C102.722 15.8138 103.096 16.4082 103.365 17.1167C103.634 17.817 103.769 18.6191 103.769 19.523C103.769 19.751 103.757 19.9423 103.732 20.0971C103.716 20.2437 103.679 20.3618 103.622 20.4513C103.573 20.5328 103.504 20.5938 103.414 20.6345C103.324 20.6671 103.211 20.6834 103.072 20.6834H95.3227C95.4123 21.97 95.7592 22.9146 96.3616 23.5172C96.9649 24.1198 97.7631 24.4211 98.7572 24.4211C99.2468 24.4211 99.6658 24.3641 100.017 24.25C100.375 24.1361 100.685 24.0099 100.945 23.8714C101.214 23.733 101.447 23.6068 101.642 23.4928C101.846 23.3787 102.042 23.3218 102.229 23.3218C102.351 23.3218 102.457 23.3462 102.547 23.3951C102.636 23.4439 102.714 23.5132 102.778 23.6027L103.659 24.702C103.324 25.0929 102.95 25.4227 102.534 25.6914C102.119 25.952 101.683 26.1637 101.227 26.3266C100.779 26.4813 100.318 26.5912 99.8451 26.6564C99.3812 26.7215 98.929 26.7541 98.4884 26.7541C97.6171 26.7541 96.8064 26.6115 96.0563 26.3266C95.307 26.0334 94.6547 25.6059 94.1005 25.0441C93.547 24.474 93.1105 23.7737 92.7927 22.9431C92.4749 22.1044 92.3164 21.1353 92.3164 20.036C92.3164 19.181 92.455 18.3789 92.7321 17.6297C93.0093 16.8724 93.4043 16.2168 93.9179 15.6631C94.439 15.1013 95.0705 14.6575 95.8123 14.3317C96.5616 14.006 97.4047 13.8431 98.3423 13.8431ZM98.4029 16.0051C97.5233 16.0051 96.8346 16.2535 96.3376 16.7502C95.8405 17.247 95.5227 17.9513 95.3841 18.8634H101.056C101.056 18.4725 101.003 18.1061 100.896 17.7641C100.79 17.4139 100.628 17.1086 100.408 16.848C100.188 16.5874 99.9106 16.3838 99.5762 16.2372C99.2426 16.0825 98.851 16.0051 98.4029 16.0051Z" fill="#969FA4"/>
<path d="M114.553 26.5708C114.162 26.5708 113.906 26.3876 113.783 26.0212L113.539 24.8119C113.277 25.1051 113.004 25.3697 112.72 25.6059C112.434 25.8421 112.125 26.0456 111.79 26.2166C111.465 26.3876 111.11 26.5179 110.727 26.6075C110.352 26.7052 109.945 26.7541 109.505 26.7541C108.821 26.7541 108.193 26.6115 107.623 26.3266C107.052 26.0416 106.559 25.6304 106.144 25.0929C105.736 24.5473 105.418 23.8755 105.19 23.0774C104.97 22.2794 104.861 21.3674 104.861 20.3414C104.861 19.4131 104.987 18.5499 105.239 17.7519C105.492 16.9538 105.855 16.2617 106.327 15.6753C106.8 15.089 107.366 14.633 108.026 14.3073C108.686 13.9734 109.428 13.8065 110.25 13.8065C110.951 13.8065 111.551 13.9205 112.048 14.1486C112.545 14.3684 112.989 14.6656 113.379 15.0402V8.4198H116.398V26.5708H114.553ZM110.532 24.36C111.159 24.36 111.693 24.2297 112.133 23.9692C112.573 23.7085 112.989 23.338 113.379 22.8576V17.2388C113.038 16.8235 112.662 16.5304 112.255 16.3594C111.856 16.1884 111.424 16.1029 110.96 16.1029C110.503 16.1029 110.088 16.1884 109.713 16.3594C109.346 16.5304 109.032 16.7909 108.772 17.1411C108.519 17.4831 108.324 17.9229 108.185 18.4603C108.046 18.9896 107.978 19.6167 107.978 20.3414C107.978 21.0743 108.034 21.6972 108.148 22.2102C108.27 22.7151 108.441 23.1304 108.662 23.4561C108.882 23.7737 109.151 24.0058 109.469 24.1523C109.786 24.2908 110.141 24.36 110.532 24.36Z" fill="#969FA4"/>
<path fill-rule="evenodd" clip-rule="evenodd" d="M7.07596 6.88144C7.62078 5.01784 9.57411 3.94849 11.4389 4.49297L23.1904 7.92427C25.0552 8.46875 26.1252 10.4209 25.5804 12.2845L20.3184 30.2833C19.7735 32.1469 17.8202 33.2163 15.9554 32.6718L4.20391 29.2404C2.33914 28.696 1.26912 26.7438 1.81395 24.8802L7.07596 6.88144ZM10.68 7.08862C10.2497 6.96297 9.79898 7.20974 9.67327 7.63981L4.41123 25.6386C4.2855 26.0686 4.53243 26.5192 4.96275 26.6448L16.7143 30.0761C17.1446 30.2017 17.5954 29.955 17.7211 29.5249L22.9831 11.5261C23.1088 11.096 22.8619 10.6456 22.4316 10.5199L10.68 7.08862Z" fill="#969FA4"/>
<path fill-rule="evenodd" clip-rule="evenodd" d="M14.4168 3.71676C14.9615 1.85317 16.9149 0.78381 18.7797 1.3283L30.5313 4.75959C32.396 5.30408 33.466 7.25622 32.9212 9.1198L27.6592 27.1186C27.1144 28.9822 25.161 30.0515 23.2963 29.5071L11.5447 26.0758C9.67995 25.5313 8.60994 23.5792 9.15478 21.7156L14.4168 3.71676ZM18.0209 3.92395C17.5906 3.7983 17.1397 4.04507 17.014 4.47513L11.752 22.4739C11.6263 22.904 11.8732 23.3544 12.3036 23.4802L24.0551 26.9114C24.4854 27.0371 24.9362 26.7903 25.0619 26.3602L30.3239 8.36144C30.4496 7.93138 30.2027 7.48089 29.7723 7.35524L18.0209 3.92395Z" fill="#969FA4"/>
</svg>
