<svg width="124" height="33" viewBox="0 0 124 33" fill="none" xmlns="http://www.w3.org/2000/svg">
<g clip-path="url(#clip0_286_87)">
<path fill-rule="evenodd" clip-rule="evenodd" d="M17.8117 2.21952C18.1482 2.11142 18.5142 2.1471 18.8239 2.31823C19.5014 2.69262 20.0167 3.3425 20.4002 3.99277C20.799 4.66923 21.1334 5.48004 21.3935 6.3414C21.9116 8.05684 22.1803 10.1242 21.9906 12.0114C21.919 12.7237 21.287 13.2428 20.579 13.1707C19.871 13.0987 19.355 12.4628 19.4267 11.7505C19.577 10.2554 19.3626 8.53478 18.9278 7.09516C18.8078 6.69777 18.6745 6.33353 18.5338 6.01032C18.113 7.0918 17.6802 8.28349 17.4872 8.92981C17.2824 9.61549 16.5639 10.0043 15.8824 9.79827C15.2009 9.59223 14.8144 8.86936 15.0192 8.18369C15.3946 6.9264 16.5279 3.9627 17.0436 2.89004C17.1974 2.57004 17.4751 2.32762 17.8117 2.21952Z" fill="#969FA4"/>
<path fill-rule="evenodd" clip-rule="evenodd" d="M13.743 8.14859C13.9994 7.32908 14.8675 6.87379 15.6821 7.1317C16.4863 7.38633 17.2718 7.72746 18.0357 8.12324L18.0402 8.12565C21.6088 9.98975 24.1965 13.1361 24.9025 16.382C24.9131 16.4227 24.929 16.4572 24.9453 16.4825C24.9608 16.5065 24.9719 16.5154 24.9721 16.5155L24.9814 16.5221L27.6136 18.425L27.6174 18.4278C28.5542 19.1093 28.7954 20.225 28.7499 21.0293C28.7046 21.8314 28.3379 22.9262 27.3046 23.4868L27.2976 23.4905C25.9504 24.2124 24.3235 24.4362 21.8402 23.9933C21.8289 23.9913 21.8176 23.9892 21.8064 23.987C21.7482 23.9752 21.687 23.9657 21.5814 23.9494L21.5734 23.9481C21.4909 23.9354 21.3709 23.9167 21.2437 23.8902C19.3352 23.5858 18.065 23.6196 17.28 23.8322C16.5798 24.0218 16.3993 24.3006 16.3152 24.5752C15.7289 26.5241 16.2651 27.669 16.993 29.2232C17.109 29.4709 17.2299 29.7291 17.3519 30.0026C17.7016 30.7864 17.3535 31.7071 16.5745 32.0589C15.7954 32.4107 14.8803 32.0605 14.5306 31.2767C14.4421 31.078 14.341 30.8678 14.234 30.6451C13.4712 29.0579 12.4031 26.8353 13.3564 23.6703L13.3578 23.6658C13.8165 22.1597 14.973 21.2349 16.4763 20.8278C17.8912 20.4447 19.6834 20.4877 21.7719 20.8243C21.8025 20.8293 21.8329 20.8351 21.8631 20.8418C21.8967 20.8494 21.9442 20.8576 22.0465 20.8735C22.054 20.8746 22.0619 20.8759 22.0702 20.8771C22.153 20.8899 22.2718 20.9082 22.3946 20.9325C24.2161 21.2555 25.0992 21.084 25.6523 20.8383L23.181 19.0518C22.5001 18.5652 22.0682 17.8393 21.8917 17.0928C21.8892 17.0824 21.8869 17.072 21.8846 17.0616C21.4183 14.8909 19.5498 12.4206 16.6175 10.8881C15.9757 10.5557 15.3554 10.29 14.7538 10.0995C13.9392 9.84157 13.4867 8.96812 13.743 8.14859Z" fill="#969FA4"/>
<path fill-rule="evenodd" clip-rule="evenodd" d="M10.0909 4.75535C10.057 5.2168 10.0212 5.66704 9.98712 6.08771C9.97488 6.23844 9.96304 6.38386 9.9516 6.52364C9.86952 7.53006 9.81136 8.24347 9.81136 8.53451C9.81136 9.1174 9.51376 9.78698 8.8368 10.128C8.07952 10.5094 7.03395 11.0967 6.10057 11.7916C6.08781 11.8011 6.0751 11.8106 6.06245 11.82C6.32485 11.8915 6.53111 11.9665 6.66582 12.02C7.34806 12.278 7.65759 12.8958 7.70276 13.3963C7.74426 13.8561 7.59222 14.3491 7.22931 14.7147C7.18101 14.7634 7.12955 14.8088 7.07528 14.8506C6.80414 15.0594 5.85283 15.8381 5.00755 17.0582C4.57144 17.6876 4.17833 18.4121 3.91405 19.221C5.15943 19.0113 6.44671 20.228 5.86119 21.6475C5.37473 22.9277 4.08827 26.7704 4.38185 30.7261C4.44544 31.5829 3.80664 32.3293 2.95506 32.3933C2.10347 32.4573 1.36158 31.8146 1.29799 30.9578C1.09224 28.1854 1.53694 25.5147 2.04308 23.5115C1.84708 23.4895 1.65466 23.4346 1.47438 23.3474C0.942776 23.0903 0.513097 22.5387 0.490867 21.8309C0.35396 19.0937 1.37716 16.8571 2.47066 15.2789C2.5432 15.1742 2.6163 15.0721 2.68967 14.9724C2.32857 14.9035 2.00514 14.7229 1.76595 14.4819C1.29689 14.0094 1.08955 13.2503 1.40158 12.5302C1.97365 11.1952 3.18477 10.0919 4.26105 9.29061C5.107 8.6608 6.00302 8.12153 6.75692 7.71061C6.78496 7.29852 6.8255 6.80426 6.86801 6.28596C6.88022 6.13704 6.8926 5.98614 6.90489 5.83464C7.00026 4.65906 7.1025 3.32523 7.1415 2.17434C7.15207 1.78896 7.30006 1.40432 7.58582 1.10537C7.8451 0.834122 8.132 0.722787 8.28744 0.675792C8.45128 0.626283 8.58976 0.612513 8.6616 0.607344C8.73312 0.602195 8.7948 0.602391 8.80624 0.602427L8.80768 0.602432C8.97808 0.602432 9.14728 0.630764 9.30848 0.686284C10.8398 1.21371 12.1449 2.31768 13.2689 3.54166C14.4028 4.77648 15.4709 6.26798 16.4839 7.72299C16.9738 8.42666 16.804 9.39678 16.1046 9.88968C15.4051 10.3826 14.441 10.2117 13.951 9.50801C12.9346 8.04806 11.9733 6.7157 10.9974 5.65299C10.6855 5.31333 10.3837 5.01434 10.0909 4.75535ZM5.53103 14.9141C5.56169 14.9267 5.59322 14.9384 5.62561 14.9494C5.59686 14.9397 5.56838 14.9292 5.54025 14.9178C5.53723 14.9166 5.53416 14.9154 5.53103 14.9141Z" fill="#969FA4"/>
<path d="M44.5747 12.0365C44.0322 12.6033 43.128 12.6236 42.5453 12.1174C42.2238 11.8138 41.7817 11.6114 41.3195 11.6114C40.335 11.6114 39.5313 12.4413 39.5313 13.4737V16.4292H41.7817C42.5654 16.4292 43.2284 17.0769 43.2284 17.8664C43.2284 18.6761 42.5654 19.3238 41.7817 19.3238H39.5313V25.3764C39.5313 26.1659 38.8682 26.8339 38.0644 26.8339C37.2808 26.8339 36.6177 26.1659 36.6177 25.3764V25.336C36.6177 23.4331 36.6177 21.5303 36.6177 19.6477V13.4535C36.6177 10.8422 38.7476 8.71667 41.3195 8.71667C42.505 8.71667 43.6303 9.16201 44.5144 9.97172C45.077 10.5385 45.0971 11.4495 44.5747 12.0365Z" fill="#969FA4"/>
<path d="M49.8587 26.854C46.6036 26.854 43.9312 24.182 43.9312 20.8825C43.9312 17.6032 46.6036 14.9109 49.8587 14.9109C53.1138 14.9109 55.7863 17.6032 55.8064 20.9027C55.7863 24.2023 53.1138 26.854 49.8587 26.854ZM49.8587 17.8461C48.1909 17.8461 46.8246 19.2023 46.8246 20.9027C46.8246 22.5829 48.1708 23.9594 49.8587 23.9594C51.5264 23.9594 52.8928 22.6031 52.8928 20.9027C52.8727 19.2023 51.5264 17.8461 49.8587 17.8461Z" fill="#969FA4"/>
<path d="M62.8999 26.8339C61.3326 26.8339 59.9059 26.2469 58.7807 25.174C57.6555 24.0607 57.0125 22.5829 56.9522 20.9838C56.9321 19.4049 57.4947 17.8866 58.6199 16.753C59.705 15.6195 61.1718 14.9717 62.7592 14.911C64.3466 14.8907 65.8335 15.4778 66.9587 16.5911C67.5213 17.1174 67.5415 18.0486 66.9989 18.5952C66.4563 19.162 65.5522 19.1822 64.9895 18.6357C64.4068 18.0689 63.6232 17.745 62.7994 17.745C61.9755 17.745 61.212 18.1093 60.6293 18.6963C60.0867 19.2834 59.7451 20.0728 59.7854 20.9028C59.7854 21.7125 60.1471 22.5222 60.7298 23.0688C61.3124 23.6558 62.0961 23.9797 62.8999 23.9594C63.6835 23.9594 64.4068 23.6558 64.9695 23.1295C65.512 22.5829 66.4363 22.6234 66.9587 23.2105C67.5012 23.7773 67.4611 24.6882 66.8783 25.2348C65.8134 26.2266 64.4269 26.8137 62.9601 26.8339H62.8999Z" fill="#969FA4"/>
<path d="M74.4532 26.9756C71.3789 26.9756 68.8472 24.2833 68.8472 21.004V16.4494C68.8472 15.6599 69.4299 15.0122 70.1733 15.0122C70.9369 15.0122 71.6603 15.6599 71.6603 16.4494V21.004C71.6603 22.7246 73.0869 24.1011 74.4532 24.1011C76.0608 24.1011 77.2664 22.7246 77.2664 21.004V16.6518C77.2664 15.8421 78.0901 15.2146 78.7332 15.2146C79.4565 15.2146 80.0793 15.8421 80.0793 16.6518V21.004C80.0793 24.2833 77.5677 26.9756 74.4532 26.9756Z" fill="#969FA4"/>
<path d="M85.9871 26.9554C84.4799 26.9554 82.9527 26.3278 82.1895 25.5991C81.6263 25.0727 81.5663 24.1619 82.1087 23.5951C82.6311 23.008 83.5351 22.9675 84.0983 23.4938C84.5199 23.8987 86.1071 24.4453 87.0119 23.8582C87.2527 23.7165 87.3935 23.4533 87.3935 23.1902C87.3935 22.8663 87.1119 22.6234 86.8711 22.5222C86.6503 22.4007 86.2879 22.4007 85.8463 22.4007C85.2839 22.4007 84.6407 22.3805 83.9775 22.1376C82.7519 21.7327 81.7471 20.4574 81.6671 19.2024C81.5463 17.7044 82.1895 16.7732 82.7319 16.2469C83.9175 15.1538 85.6455 14.9919 86.8911 15.1943C87.8351 15.3563 88.5391 15.7004 89.1415 16.2469C89.7039 16.7732 89.7647 17.6842 89.2423 18.251C88.9407 18.5749 88.4783 18.757 88.0367 18.6963C87.8151 18.6761 87.6143 18.5951 87.4135 18.4736C87.0919 18.2307 86.8511 18.0688 86.4287 17.9878C85.7255 17.8663 84.3991 17.9068 84.4999 18.9392C84.5199 19.0607 84.7407 19.3643 84.9223 19.4453C85.1631 19.5262 85.5047 19.5262 85.8863 19.5262C86.5095 19.5465 87.2727 19.5465 88.0567 19.9109C89.3623 20.4979 90.2063 21.7934 90.2063 23.1699C90.2063 24.3845 89.5839 25.5181 88.5791 26.2266C87.7751 26.7731 86.8911 26.9554 85.9871 26.9554Z" fill="#969FA4"/>
<path d="M99.8103 12.0365C99.2679 12.6033 98.3639 12.6235 97.7815 12.1174C97.4599 11.8138 97.0175 11.6113 96.5551 11.6113C95.5711 11.6113 94.7671 12.4413 94.7671 13.4737V16.4291H97.0175C97.8015 16.4291 98.4647 17.0769 98.4647 17.8664C98.4647 18.6761 97.8015 19.3238 97.0175 19.3238H94.7671V25.3764C94.7671 26.1659 94.1039 26.8338 93.3007 26.8338C92.5167 26.8338 91.8535 26.1659 91.8535 25.3764V25.3359C91.8535 23.4331 91.8535 21.5303 91.8535 19.6477V13.4535C91.8535 10.8421 93.9839 8.71667 96.5551 8.71667C97.7407 8.71667 98.8663 9.16201 99.7503 9.97172C100.313 10.5385 100.333 11.4494 99.8103 12.0365Z" fill="#969FA4"/>
<path d="M105.076 26.854C101.821 26.854 99.1489 24.182 99.1489 20.8825C99.1489 17.6032 101.821 14.9109 105.076 14.9109C108.331 14.9109 111.003 17.6032 111.024 20.9027C111.003 24.2023 108.331 26.854 105.076 26.854ZM105.076 17.8461C103.408 17.8461 102.042 19.2023 102.042 20.9027C102.042 22.5829 103.388 23.9594 105.076 23.9594C106.764 23.9594 108.111 22.6031 108.111 20.9027C108.111 19.2023 106.764 17.8461 105.076 17.8461Z" fill="#969FA4"/>
<path d="M122.799 24.4857C123.321 25.0322 123.301 25.9229 122.759 26.4695C122.497 26.7326 122.135 26.854 121.794 26.854C121.432 26.854 121.091 26.7124 120.81 26.429L117.494 22.9674L114.239 26.3682C113.978 26.6516 113.616 26.7933 113.255 26.7933C112.933 26.7933 112.571 26.6719 112.29 26.4087C111.747 25.8622 111.727 24.9715 112.27 24.4249L115.605 20.9432L112.25 17.4412C111.727 16.8744 111.727 15.9838 112.29 15.4574C112.832 14.9109 113.716 14.9311 114.259 15.4776L117.514 18.8987L120.85 15.417C121.372 14.8704 122.236 14.8502 122.819 15.3967C123.361 15.923 123.382 16.7935 122.839 17.3805L119.463 20.923L122.799 24.4857Z" fill="#969FA4"/>
</g>
<defs>
<clipPath id="clip0_286_87">
<rect width="124" height="33" fill="white"/>
</clipPath>
</defs>
</svg>
