<svg width="148" height="33" viewBox="0 0 148 33" fill="none" xmlns="http://www.w3.org/2000/svg">
<path d="M49.1937 26.3043C47.3076 26.3043 45.6549 25.878 44.2357 25.0256C42.8345 24.1731 41.7298 22.9963 40.9214 21.4952C40.1311 19.9756 39.7358 18.2243 39.7358 16.2413C39.7358 14.2584 40.1311 12.5163 40.9214 11.0152C41.7298 9.49561 42.8345 8.30952 44.2357 7.45704C45.6549 6.60455 47.3076 6.17831 49.1937 6.17831C51.0619 6.17831 52.7057 6.60455 54.1248 7.45704C55.5439 8.30952 56.6487 9.49561 57.4391 11.0152C58.2295 12.5163 58.6247 14.2584 58.6247 16.2413C58.6247 18.2243 58.2295 19.9756 57.4391 21.4952C56.6487 22.9963 55.5439 24.1731 54.1248 25.0256C52.7057 25.878 51.0619 26.3043 49.1937 26.3043ZM49.1937 23.1074C50.9901 23.1074 52.4182 22.4959 53.4781 21.2728C54.5559 20.0497 55.0948 18.3725 55.0948 16.2413C55.0948 14.1101 54.5559 12.4329 53.4781 11.2098C52.4182 9.98665 50.9901 9.37512 49.1937 9.37512C47.3974 9.37512 45.9602 9.98665 44.8824 11.2098C43.8046 12.4329 43.2657 14.1101 43.2657 16.2413C43.2657 18.3725 43.8046 20.0497 44.8824 21.2728C45.9602 22.4959 47.3974 23.1074 49.1937 23.1074Z" fill="#969FA4"/>
<path d="M61.5894 32.0864V12.1828H64.6611L65.0384 14.1564C65.4696 13.5449 66.0354 13.0075 66.736 12.5442C67.4545 12.0808 68.3797 11.8492 69.5114 11.8492C70.7689 11.8492 71.8916 12.1642 72.8796 12.7943C73.8676 13.4244 74.649 14.2862 75.2239 15.3796C75.7988 16.473 76.0861 17.7146 76.0861 19.1046C76.0861 20.4944 75.7988 21.7361 75.2239 22.8295C74.649 23.9044 73.8676 24.7569 72.8796 25.387C71.8916 25.9985 70.7689 26.3043 69.5114 26.3043C68.5054 26.3043 67.6252 26.1097 66.8707 25.7205C66.1163 25.3314 65.5055 24.7847 65.0384 24.0804V32.0864H61.5894ZM68.7838 23.1909C69.8797 23.1909 70.7869 22.811 71.5054 22.0512C72.2239 21.2913 72.5831 20.3092 72.5831 19.1046C72.5831 17.9 72.2239 16.9085 71.5054 16.1301C70.7869 15.3518 69.8797 14.9626 68.7838 14.9626C67.6701 14.9626 66.754 15.3518 66.0354 16.1301C65.3348 16.89 64.9845 17.8722 64.9845 19.0767C64.9845 20.2813 65.3348 21.2729 66.0354 22.0512C66.754 22.811 67.6701 23.1909 68.7838 23.1909Z" fill="#969FA4"/>
<path d="M84.5959 25.9707C83.1947 25.9707 82.072 25.6186 81.2276 24.9144C80.3834 24.2101 79.9613 22.9593 79.9613 21.1616V15.1572H77.6709V12.1828H79.9613L80.3654 8.4856H83.4103V12.1828H87.021V15.1572H83.4103V21.1894C83.4103 21.8566 83.545 22.3199 83.8145 22.5794C84.1019 22.8203 84.5869 22.9407 85.2695 22.9407H86.9402V25.9707H84.5959Z" fill="#969FA4"/>
<path d="M91.8416 10.0423C91.213 10.0423 90.692 9.84768 90.2788 9.45856C89.8837 9.06935 89.686 8.57824 89.686 7.98522C89.686 7.39219 89.8837 6.91035 90.2788 6.5397C90.692 6.15053 91.213 5.95593 91.8416 5.95593C92.4704 5.95593 92.9823 6.15053 93.3778 6.5397C93.791 6.91035 93.9977 7.39219 93.9977 7.98522C93.9977 8.57824 93.791 9.06935 93.3778 9.45856C92.9823 9.84768 92.4704 10.0423 91.8416 10.0423ZM90.1171 25.9707V12.1828H93.5658V25.9707H90.1171Z" fill="#969FA4"/>
<path d="M97.166 25.9707V12.1828H100.211L100.508 14.0453C100.939 13.3781 101.505 12.8499 102.205 12.4607C102.923 12.053 103.75 11.8492 104.684 11.8492C106.75 11.8492 108.214 12.6739 109.076 14.3232C109.561 13.5634 110.208 12.9611 111.016 12.5163C111.842 12.0716 112.74 11.8492 113.71 11.8492C115.453 11.8492 116.791 12.3866 117.726 13.4615C118.66 14.5363 119.127 16.1116 119.127 18.1872V25.9707H115.677V18.5207C115.677 17.3347 115.453 16.4267 115.004 15.7965C114.573 15.1664 113.899 14.8514 112.983 14.8514C112.049 14.8514 111.295 15.2035 110.72 15.9077C110.163 16.6119 109.885 17.5942 109.885 18.8543V25.9707H106.435V18.5207C106.435 17.3347 106.211 16.4267 105.761 15.7965C105.313 15.1664 104.621 14.8514 103.686 14.8514C102.77 14.8514 102.025 15.2035 101.451 15.9077C100.894 16.6119 100.615 17.5942 100.615 18.8543V25.9707H97.166Z" fill="#969FA4"/>
<path d="M128.895 26.3043C127.548 26.3043 126.353 26.0078 125.311 25.4147C124.269 24.8218 123.452 23.9878 122.859 22.9129C122.266 21.838 121.97 20.5963 121.97 19.1879C121.97 17.761 122.257 16.4915 122.832 15.3796C123.425 14.2676 124.233 13.4059 125.257 12.7943C126.299 12.1642 127.521 11.8492 128.922 11.8492C130.233 11.8492 131.392 12.1457 132.398 12.7388C133.403 13.3317 134.185 14.1472 134.742 15.185C135.317 16.2042 135.604 17.344 135.604 18.6042C135.604 18.808 135.596 19.0211 135.578 19.2435C135.578 19.466 135.569 19.6976 135.551 19.9385H125.392C125.464 21.0134 125.823 21.8566 126.47 22.4681C127.134 23.0797 127.934 23.3855 128.868 23.3855C129.568 23.3855 130.152 23.228 130.619 22.9129C131.104 22.5794 131.464 22.1531 131.697 21.6342H135.2C134.949 22.5052 134.527 23.3021 133.934 24.0249C133.359 24.7291 132.64 25.285 131.778 25.6928C130.934 26.1005 129.972 26.3043 128.895 26.3043ZM128.922 14.7402C128.077 14.7402 127.332 14.9904 126.686 15.4908C126.039 15.9726 125.626 16.7139 125.446 17.7146H132.101C132.047 16.8065 131.724 16.0838 131.131 15.5463C130.538 15.0089 129.802 14.7402 128.922 14.7402Z" fill="#969FA4"/>
<path d="M138.505 25.9707V12.1828H141.577L141.9 14.768C142.385 13.8785 143.041 13.1743 143.868 12.6553C144.712 12.1179 145.7 11.8492 146.832 11.8492V15.6019H145.862C145.107 15.6019 144.434 15.7224 143.841 15.9633C143.248 16.2042 142.781 16.6213 142.439 17.2142C142.116 17.8073 141.954 18.632 141.954 19.6883V25.9707H138.505Z" fill="#969FA4"/>
<path d="M29.8987 8.33888L11.8205 27.2307C11.7042 27.3523 11.5008 27.2673 11.5029 27.0979L11.6198 17.8205C11.6206 17.7519 11.6584 17.6893 11.7182 17.6573L29.6796 8.04296C29.8657 7.94336 30.0452 8.18581 29.8987 8.33888Z" fill="#969FA4" fill-opacity="0.8"/>
<path d="M30.7686 6.8269L30.5298 7.16953L10.0002 18.2756L2.50486 13.3C2.32998 13.1786 2.37757 12.9009 2.58981 12.8613L30.7686 6.8269Z" fill="#969FA4"/>
<path fill-rule="evenodd" clip-rule="evenodd" d="M31.0766 6.62102C31.1601 6.74972 31.1574 6.91716 31.0698 7.04301L30.8308 7.38564C30.7976 7.43331 30.7538 7.47247 30.703 7.49996L10.1735 18.6061C10.0542 18.6705 9.90967 18.664 9.79658 18.5889L2.30125 13.6134C2.29908 13.6119 2.29692 13.6105 2.29478 13.609C1.87528 13.3176 1.95414 12.6035 2.51632 12.4941L30.6912 6.46051C30.84 6.42864 30.9929 6.49233 31.0766 6.62102ZM2.97101 13.1624L10.0186 17.8406L28.9501 7.59901L2.97101 13.1624Z" fill="#969FA4"/>
<path fill-rule="evenodd" clip-rule="evenodd" d="M31.1171 6.94898C31.177 6.77365 31.1013 6.58024 30.9389 6.49431C30.7766 6.40837 30.5766 6.45582 30.4688 6.60584L30.2799 6.86862L9.71842 18.2069C9.57712 18.2847 9.50182 18.4462 9.53198 18.6062L11.1226 27.0315C11.1536 27.1955 11.2878 27.3189 11.4519 27.3342C11.6159 27.3495 11.7702 27.2529 11.8302 27.0975L14.2716 20.7677L30.7922 7.71417C30.8485 7.66974 30.8908 7.6098 30.9142 7.54155L31.1171 6.94898Z" fill="url(#paint0_linear_286_117)"/>
<path d="M30.7675 6.82626L24.5888 26.8507C24.541 26.9991 24.3612 27.0651 24.2293 26.9827L16.1941 21.9468L14.4873 20.7825L30.2584 7.50409C30.4546 7.33889 30.615 7.13431 30.7293 6.90328L30.7675 6.82626Z" fill="#969FA4"/>
<path fill-rule="evenodd" clip-rule="evenodd" d="M30.9066 6.47902C31.0852 6.55209 31.1786 6.75181 31.121 6.93805L24.9424 26.9624L24.941 26.967C24.818 27.3485 24.3692 27.5097 24.0359 27.3016L16.0003 22.2653C15.9962 22.2628 15.9922 22.2601 15.9883 22.2575L14.2814 21.0932C14.1848 21.0273 14.1245 20.9193 14.1186 20.8014C14.1128 20.6837 14.162 20.57 14.2516 20.4945L30.0228 7.21609C30.1797 7.08392 30.308 6.92027 30.3995 6.73544L30.4375 6.65843C30.5239 6.48401 30.728 6.40594 30.9066 6.47902ZM29.9379 8.26164L15.1038 20.7511L16.3954 21.6321L24.2863 26.5777L29.9379 8.26164Z" fill="#969FA4"/>
<defs>
<linearGradient id="paint0_linear_286_117" x1="24.3566" y1="3.28241" x2="11.9013" y2="30.4229" gradientUnits="userSpaceOnUse">
<stop offset="0.0001" stop-color="#ABB3B7"/>
<stop offset="1" stop-color="#BBD3DF"/>
</linearGradient>
</defs>
</svg>
