<svg width="159" height="27" viewBox="0 0 159 27" fill="none" xmlns="http://www.w3.org/2000/svg">
<g clip-path="url(#clip0_286_99)">
<path opacity="0.4" d="M28.1707 10.2513L17.4474 17.8315H12.6813L1.95801 10.2513L15.0644 1.5882L28.1707 10.2513Z" fill="#969FA4"/>
<path fill-rule="evenodd" clip-rule="evenodd" d="M14.458 0.687151C14.8248 0.444656 15.3028 0.444656 15.6696 0.687151L28.776 9.35027C29.0798 9.55112 29.2624 9.88923 29.2624 10.2513V24.3288C29.2624 24.9032 29.0322 25.4541 28.6225 25.8602C28.2129 26.2665 27.6573 26.4947 27.0779 26.4947H3.04962C2.47029 26.4947 1.91468 26.2665 1.50503 25.8602C1.09537 25.4541 0.865234 24.9032 0.865234 24.3288V10.2513C0.865234 9.88923 1.04774 9.55112 1.35159 9.35027L14.458 0.687151ZM3.04962 10.8308V24.3288H27.0779V10.8308L15.0638 2.88964L3.04962 10.8308Z" fill="#969FA4"/>
<path fill-rule="evenodd" clip-rule="evenodd" d="M13.5731 17.2067C13.9211 17.6952 13.8039 18.371 13.3111 18.716L2.92457 25.9902C2.43189 26.3353 1.75036 26.2189 1.40235 25.7305C1.05433 25.2419 1.17161 24.5662 1.6643 24.2212L12.0509 16.947C12.5435 16.6019 13.2251 16.7182 13.5731 17.2067Z" fill="#969FA4"/>
<path fill-rule="evenodd" clip-rule="evenodd" d="M16.5552 17.2066C16.9032 16.7182 17.5847 16.6019 18.0774 16.9469L28.4642 24.2212C28.9568 24.5662 29.0741 25.2419 28.7262 25.7305C28.3781 26.219 27.6966 26.3353 27.2039 25.9902L16.8172 18.7159C16.3244 18.3709 16.2072 17.6952 16.5552 17.2066Z" fill="#969FA4"/>
<path fill-rule="evenodd" clip-rule="evenodd" d="M1.0682 9.62264C1.41838 9.13568 2.10041 9.02237 2.59156 9.36962L13.0303 16.7486H17.0974L27.5362 9.36962C28.0273 9.02237 28.7094 9.13568 29.0595 9.62264C29.4097 10.1097 29.2954 10.7859 28.8043 11.1331L18.081 18.7133C17.8959 18.8441 17.6743 18.9145 17.4469 18.9145H12.6809C12.4535 18.9145 12.2319 18.8441 12.0468 18.7133L1.32346 11.1331C0.832314 10.7859 0.71803 10.1097 1.0682 9.62264Z" fill="#969FA4"/>
<path d="M41.0168 22.5038C40.7239 22.5038 40.4774 22.4045 40.2771 22.2059C40.0767 22.0072 39.9766 21.7627 39.9766 21.4724V7.78957C39.9766 7.37701 40.123 7.02558 40.4158 6.73527C40.7086 6.42968 41.063 6.27689 41.4792 6.27689H41.7796C42.2727 6.27689 42.6966 6.50607 43.0511 6.96446L51.9508 19.7077V7.33117C51.9508 7.04086 52.051 6.79639 52.2514 6.59775C52.4516 6.38384 52.6982 6.27689 52.991 6.27689C53.2839 6.27689 53.5305 6.38384 53.7308 6.59775C53.9465 6.79639 54.0544 7.04086 54.0544 7.33117V21.014C54.0544 21.4266 53.9003 21.778 53.5921 22.0683C53.2993 22.3586 52.9448 22.5038 52.5287 22.5038H52.2514C52.0048 22.5038 51.7736 22.4503 51.5578 22.3434C51.3421 22.2211 51.1649 22.0683 51.0262 21.885L42.0801 9.07305V21.4724C42.0801 21.7627 41.9722 22.0072 41.7565 22.2059C41.5562 22.4045 41.3096 22.5038 41.0168 22.5038Z" fill="#969FA4"/>
<path d="M63.0018 22.6184C61.8152 22.6184 60.7749 22.3663 59.8811 21.8621C58.9872 21.3578 58.2938 20.6473 57.8006 19.7306C57.3228 18.7985 57.084 17.7366 57.084 16.5447C57.084 15.353 57.3228 14.2987 57.8006 13.3819C58.2938 12.4498 58.9872 11.7317 59.8811 11.2275C60.7749 10.7233 61.8152 10.4711 63.0018 10.4711C64.173 10.4711 65.2055 10.7233 66.0994 11.2275C66.9932 11.7317 67.6867 12.4498 68.1798 13.3819C68.673 14.2987 68.9196 15.353 68.9196 16.5447C68.9196 17.7366 68.673 18.7985 68.1798 19.7306C67.6867 20.6473 66.9932 21.3578 66.0994 21.8621C65.2055 22.3663 64.173 22.6184 63.0018 22.6184ZM63.0018 20.7161C63.6336 20.7161 64.2347 20.571 64.8049 20.2806C65.3905 19.9903 65.8682 19.5319 66.2381 18.9055C66.6234 18.279 66.816 17.4844 66.816 16.5218C66.816 15.5745 66.6234 14.7876 66.2381 14.1612C65.8682 13.5347 65.3905 13.0839 64.8049 12.8089C64.2347 12.5186 63.6336 12.3734 63.0018 12.3734C62.3545 12.3734 61.7381 12.5186 61.1525 12.8089C60.5822 13.0839 60.1123 13.5347 59.7424 14.1612C59.3725 14.7876 59.1876 15.5745 59.1876 16.5218C59.1876 17.4844 59.3725 18.279 59.7424 18.9055C60.1123 19.5319 60.5822 19.9903 61.1525 20.2806C61.7381 20.571 62.3545 20.7161 63.0018 20.7161Z" fill="#969FA4"/>
<path d="M75.2199 22.5038C74.9118 22.5038 74.6344 22.4121 74.3878 22.2288C74.1412 22.0454 73.9717 21.8162 73.8793 21.5412L70.5967 12.0067C70.5504 11.8692 70.5273 11.7394 70.5273 11.6171C70.5273 11.3268 70.6276 11.0823 70.8279 10.8837C71.0282 10.685 71.2748 10.5858 71.5676 10.5858C71.7834 10.5858 71.976 10.6468 72.1455 10.7691C72.3305 10.876 72.4537 11.0212 72.5154 11.2046L75.2199 20.0285L77.9015 11.4108C77.9786 11.1663 78.1173 10.9678 78.3175 10.8149C78.5333 10.6621 78.7722 10.5858 79.0342 10.5858C79.2961 10.5858 79.5274 10.6621 79.7276 10.8149C79.9434 10.9678 80.0898 11.1663 80.1669 11.4108L82.8483 20.0285L85.553 11.2046C85.6146 11.0212 85.7302 10.876 85.8997 10.7691C86.0847 10.6468 86.285 10.5858 86.5008 10.5858C86.7936 10.5858 87.0401 10.685 87.2404 10.8837C87.4408 11.0823 87.541 11.3268 87.541 11.6171C87.541 11.7394 87.5179 11.8692 87.4716 12.0067L84.1891 21.5412C84.0966 21.8162 83.9272 22.0454 83.6806 22.2288C83.434 22.4121 83.1566 22.5038 82.8483 22.5038C82.5402 22.5038 82.2628 22.4121 82.0162 22.2288C81.7696 22.0454 81.5924 21.8086 81.4845 21.5182L79.0342 13.9319L76.5838 21.5182C76.476 21.8086 76.2988 22.0454 76.0522 22.2288C75.8056 22.4121 75.5282 22.5038 75.2199 22.5038Z" fill="#969FA4"/>
<path fill-rule="evenodd" clip-rule="evenodd" d="M43.1718 6.87179C43.1733 6.87375 43.1747 6.87574 43.1762 6.87776L51.7961 19.2201V7.33119C51.7961 7.00294 51.9107 6.71996 52.1395 6.49205C52.3685 6.24866 52.655 6.12457 52.9899 6.12457C53.3238 6.12457 53.6097 6.24796 53.8383 6.49C54.0824 6.71663 54.2069 7.00013 54.2069 7.33119V21.014C54.2069 21.4687 54.0352 21.8593 53.6982 22.1774C53.3767 22.4955 52.9836 22.6561 52.5275 22.6561H52.2501C51.9803 22.6561 51.7255 22.5973 51.488 22.4796C51.4854 22.4784 51.4829 22.477 51.4804 22.4756C51.2479 22.3439 51.0543 22.1776 50.9021 21.9763L50.8987 21.9717L42.2326 9.5607V21.4724C42.2326 21.8044 42.1074 22.0886 41.862 22.3156C41.6321 22.5425 41.3467 22.6561 41.0156 22.6561C40.6836 22.6561 40.3975 22.5418 40.1673 22.3136C39.937 22.0853 39.8218 21.8016 39.8218 21.4724V7.78957C39.8218 7.3375 39.9838 6.94773 40.3046 6.62896C40.6255 6.29477 41.0194 6.12457 41.4779 6.12457H41.7784C42.3284 6.12457 42.7942 6.38349 43.1718 6.87179ZM40.4146 6.73528C40.7074 6.42969 41.0619 6.2769 41.4779 6.2769H41.7784C42.2716 6.2769 42.6954 6.50608 43.0498 6.96447L51.9497 19.7076V7.33119C51.9497 7.04087 52.0498 6.79639 52.2501 6.59776C52.4505 6.38385 52.6971 6.2769 52.9899 6.2769C53.2827 6.2769 53.5292 6.38385 53.7296 6.59776C53.9454 6.79639 54.0532 7.04087 54.0532 7.33119V21.014C54.0532 21.4266 53.8992 21.778 53.5909 22.0683C53.2981 22.3586 52.9437 22.5038 52.5275 22.5038H52.2501C52.0036 22.5038 51.7724 22.4503 51.5567 22.3434C51.3409 22.2212 51.1637 22.0683 51.025 21.885L42.079 9.07304V21.4724C42.079 21.7628 41.9711 22.0072 41.7553 22.2058C41.5551 22.4045 41.3085 22.5038 41.0156 22.5038C40.7228 22.5038 40.4762 22.4045 40.2759 22.2058C40.0756 22.0072 39.9754 21.7628 39.9754 21.4724V7.78957C39.9754 7.37702 40.1218 7.02559 40.4146 6.73528ZM57.6625 19.7995C57.1725 18.8433 56.9293 17.7572 56.9293 16.5447C56.9293 15.3324 57.1725 14.2535 57.6631 13.312L57.6635 13.3112C58.1698 12.3542 58.8838 11.6142 59.804 11.0951C60.7244 10.5759 61.7916 10.3188 63.0007 10.3188C64.1948 10.3188 65.2542 10.5761 66.1743 11.0951C67.0943 11.6141 67.8082 12.3538 68.3145 13.3105C68.821 14.2523 69.0722 15.3318 69.0722 16.5447C69.0722 17.7579 68.821 18.8447 68.3148 19.8014L68.3143 19.8022C67.8078 20.7439 67.0939 21.4757 66.1743 21.9945C65.2542 22.5135 64.1948 22.7708 63.0007 22.7708C61.7916 22.7708 60.7244 22.5136 59.804 21.9945C58.8845 21.4757 58.1706 20.7439 57.664 19.8022L57.6625 19.7995ZM68.1788 13.3819C67.6856 12.4499 66.9922 11.7317 66.0983 11.2275C65.2045 10.7233 64.172 10.4711 63.0007 10.4711C61.8141 10.4711 60.7738 10.7233 59.88 11.2275C58.9862 11.7317 58.2927 12.4499 57.7995 13.3819C57.3218 14.2987 57.0829 15.353 57.0829 16.5447C57.0829 17.7366 57.3218 18.7985 57.7995 19.7306C58.2927 20.6473 58.9862 21.3579 59.88 21.8621C60.7738 22.3663 61.8141 22.6184 63.0007 22.6184C64.172 22.6184 65.2045 22.3663 66.0983 21.8621C66.9922 21.3579 67.6856 20.6473 68.1788 19.7306C68.6719 18.7985 68.9185 17.7366 68.9185 16.5447C68.9185 15.353 68.6719 14.2987 68.1788 13.3819ZM64.7337 20.1451L64.7351 20.1444C65.2909 19.8688 65.7477 19.4326 66.1044 18.8285L66.1058 18.8261C66.4725 18.23 66.6612 17.465 66.6612 16.5218C66.6612 15.5945 66.4727 14.837 66.1058 14.2405L66.1044 14.2381C65.7481 13.6346 65.2922 13.2068 64.738 12.9466L64.7336 12.9445C64.1848 12.6651 63.6078 12.5257 63.0007 12.5257C62.3776 12.5257 61.7847 12.6653 61.2201 12.9452L61.2186 12.9459C60.6798 13.2058 60.2309 13.6335 59.8739 14.2381C59.5214 14.8351 59.3401 15.5935 59.3401 16.5218C59.3401 17.4659 59.5216 18.2318 59.8739 18.8285C60.231 19.4334 60.6806 19.8695 61.2209 20.1448C61.7852 20.4244 62.3779 20.5638 63.0007 20.5638C63.6078 20.5638 64.1848 20.4245 64.7337 20.1451ZM61.1514 20.2807C60.5812 19.9903 60.1111 19.5319 59.7413 18.9055C59.3715 18.279 59.1865 17.4845 59.1865 16.5218C59.1865 15.5746 59.3715 14.7876 59.7413 14.1611C60.1111 13.5347 60.5812 13.0839 61.1514 12.8089C61.737 12.5186 62.3535 12.3735 63.0007 12.3735C63.6326 12.3735 64.2336 12.5186 64.8038 12.8089C65.3894 13.0839 65.8671 13.5347 66.237 14.1611C66.6222 14.7876 66.8149 15.5746 66.8149 16.5218C66.8149 17.4845 66.6222 18.279 66.237 18.9055C65.8671 19.5319 65.3894 19.9903 64.8038 20.2807C64.2336 20.5709 63.6326 20.7161 63.0007 20.7161C62.3535 20.7161 61.737 20.5709 61.1514 20.2807ZM87.4708 12.0067L84.1883 21.5412C84.0958 21.8163 83.9263 22.0454 83.6797 22.2288C83.4331 22.4121 83.1558 22.5038 82.8475 22.5038C82.5393 22.5038 82.262 22.4121 82.0154 22.2288C81.7688 22.0454 81.5915 21.8086 81.4836 21.5183L79.0334 13.932L76.583 21.5183C76.4751 21.8086 76.2979 22.0454 76.0514 22.2288C75.8048 22.4121 75.5274 22.5038 75.2191 22.5038C74.911 22.5038 74.6336 22.4121 74.387 22.2288C74.1404 22.0454 73.9709 21.8163 73.8784 21.5412L70.5958 12.0067C70.5496 11.8692 70.5265 11.7393 70.5265 11.6171C70.5265 11.3268 70.6267 11.0823 70.827 10.8837C71.0274 10.685 71.2739 10.5857 71.5668 10.5857C71.7825 10.5857 71.9752 10.6469 72.1446 10.7691C72.3296 10.876 72.4529 11.0212 72.5146 11.2046L75.2191 20.0285L77.9006 11.4108C77.9777 11.1663 78.1164 10.9677 78.3167 10.8149C78.5325 10.6621 78.7713 10.5857 79.0334 10.5857C79.2953 10.5857 79.5265 10.6621 79.7268 10.8149C79.9426 10.9677 80.089 11.1663 80.1661 11.4108L82.8475 20.0285L85.5521 11.2046C85.6138 11.0212 85.7294 10.876 85.8989 10.7691C86.0838 10.6469 86.2842 10.5857 86.5 10.5857C86.7928 10.5857 87.0393 10.685 87.2396 10.8837C87.44 11.0823 87.5401 11.3268 87.5401 11.6171C87.5401 11.7393 87.517 11.8692 87.4708 12.0067ZM85.815 10.6414C86.024 10.5037 86.2535 10.4334 86.5 10.4334C86.8319 10.4334 87.118 10.5478 87.3483 10.776C87.5785 11.0042 87.6938 11.2879 87.6938 11.6171C87.6938 11.7584 87.6671 11.9046 87.6166 12.0549L87.6162 12.0559L84.334 21.5894C84.334 21.5896 84.3339 21.5899 84.3338 21.5902C84.2308 21.8959 84.0418 22.1499 83.7719 22.3506C83.4987 22.5538 83.189 22.6561 82.8475 22.6561C82.5061 22.6561 82.1963 22.5538 81.9231 22.3506C81.6526 22.1494 81.4575 21.8885 81.3395 21.5709C81.3388 21.5689 81.338 21.5668 81.3374 21.5647L79.0334 14.4314L76.7293 21.5647C76.7287 21.5668 76.728 21.5689 76.7272 21.5709C76.6092 21.8885 76.4141 22.1494 76.1435 22.3506C75.8703 22.5538 75.5606 22.6561 75.2191 22.6561C74.8777 22.6561 74.5679 22.5538 74.2948 22.3506C74.0249 22.1499 73.8358 21.8959 73.7329 21.5902C73.7328 21.5899 73.7327 21.5896 73.7326 21.5894L70.4501 12.0549C70.3996 11.9046 70.3729 11.7584 70.3729 11.6171C70.3729 11.2879 70.4882 11.0042 70.7184 10.776C70.9486 10.5478 71.2347 10.4334 71.5668 10.4334C71.8113 10.4334 72.0337 10.5026 72.2288 10.6414C72.439 10.7648 72.5864 10.9367 72.6603 11.1564L72.6616 11.1602L75.2203 19.5083L77.7538 11.366L77.754 11.3654C77.8403 11.0917 77.9971 10.8665 78.2231 10.6942L78.2275 10.691C78.4689 10.52 78.7389 10.4334 79.0334 10.4334C79.327 10.4334 79.5906 10.5195 79.8183 10.6925C80.0593 10.8638 80.2256 11.0892 80.3127 11.3654L80.3128 11.366L82.8465 19.5083L85.4064 11.1564C85.4794 10.9393 85.6175 10.7665 85.815 10.6414Z" fill="#969FA4"/>
<path d="M92.3095 22.5038C92.0161 22.5038 91.7693 22.4045 91.569 22.2059C91.3687 22.0072 91.2686 21.7627 91.2686 21.4724V7.33117C91.2686 7.04086 91.3687 6.79639 91.569 6.59775C91.7693 6.38384 92.0161 6.27689 92.3095 6.27689C92.602 6.27689 92.8489 6.38384 93.0492 6.59775C93.2644 6.79639 93.3724 7.04086 93.3724 7.33117V21.4724C93.3724 21.7627 93.2644 22.0072 93.0492 22.2059C92.8489 22.4045 92.602 22.5038 92.3095 22.5038Z" fill="#969FA4"/>
<path d="M98.2593 22.5038C97.9659 22.5038 97.72 22.4045 97.5197 22.2059C97.3194 22.0072 97.2192 21.7627 97.2192 21.4724V11.6401C97.2192 11.3497 97.3194 11.1052 97.5197 10.9066C97.72 10.6927 97.9659 10.5858 98.2593 10.5858C98.5519 10.5858 98.7987 10.6927 98.999 10.9066C99.2142 11.1052 99.3223 11.3497 99.3223 11.6401V12.5797C99.9082 11.9379 100.54 11.4261 101.218 11.0441C101.896 10.6621 102.697 10.4711 103.622 10.4711C104.47 10.4711 105.202 10.6698 105.818 11.067C106.45 11.4643 106.928 12.0067 107.251 12.6943C107.59 13.3819 107.76 14.1383 107.76 14.9633V21.4724C107.76 21.7627 107.652 22.0072 107.437 22.2059C107.236 22.4045 106.989 22.5038 106.697 22.5038C106.403 22.5038 106.157 22.4045 105.957 22.2059C105.756 22.0072 105.656 21.7627 105.656 21.4724V15.1926C105.656 13.3284 104.809 12.3963 103.114 12.3963C102.343 12.3963 101.649 12.595 101.033 12.9922C100.432 13.3896 99.8616 13.9243 99.3223 14.5966V21.4724C99.3223 21.7627 99.2142 22.0072 98.999 22.2059C98.7987 22.4045 98.5519 22.5038 98.2593 22.5038Z" fill="#969FA4"/>
<path fill-rule="evenodd" clip-rule="evenodd" d="M92.3086 22.6561C91.9765 22.6561 91.691 22.5418 91.4609 22.3136C91.2307 22.0853 91.1147 21.8016 91.1147 21.4724V7.33119C91.1147 7.00294 91.2298 6.71997 91.4582 6.49206C91.6875 6.24866 91.9739 6.12457 92.3086 6.12457C92.6424 6.12457 92.9287 6.24796 93.1571 6.49C93.4014 6.71663 93.5261 7.00012 93.5261 7.33119V21.4724C93.5261 21.8044 93.4005 22.0886 93.1554 22.3156C92.9252 22.5425 92.6397 22.6561 92.3086 22.6561ZM93.0482 22.2058C93.2643 22.0072 93.3724 21.7628 93.3724 21.4724V7.33119C93.3724 7.04087 93.2643 6.79639 93.0482 6.59776C92.8479 6.38385 92.602 6.2769 92.3086 6.2769C92.016 6.2769 91.7692 6.38385 91.5689 6.59776C91.3686 6.79639 91.2685 7.04087 91.2685 7.33119V21.4724C91.2685 21.7628 91.3686 22.0072 91.5689 22.2058C91.7692 22.4045 92.016 22.5038 92.3086 22.5038C92.602 22.5038 92.8479 22.4045 93.0482 22.2058ZM98.2592 22.6561C97.9272 22.6561 97.6408 22.5418 97.4106 22.3136C97.1805 22.0853 97.0645 21.8016 97.0645 21.4724V11.64C97.0645 11.3118 97.1796 11.0288 97.4089 10.8009C97.6373 10.5575 97.9236 10.4334 98.2592 10.4334C98.593 10.4334 98.8785 10.5568 99.1069 10.7989C99.3511 11.0255 99.4759 11.309 99.4759 11.64V12.1964C99.995 11.6734 100.55 11.2447 101.141 10.9117C101.847 10.5144 102.675 10.3188 103.622 10.3188C104.494 10.3188 105.256 10.5235 105.901 10.9388C106.557 11.3518 107.054 11.9162 107.39 12.6287C107.739 13.3383 107.913 14.1174 107.913 14.9633V21.4724C107.913 21.8044 107.788 22.0886 107.543 22.3156C107.313 22.5425 107.027 22.6561 106.696 22.6561C106.364 22.6561 106.078 22.5418 105.848 22.3136C105.618 22.0853 105.502 21.8016 105.502 21.4724V15.1925C105.502 14.2803 105.295 13.6245 104.906 13.1974C104.521 12.7733 103.933 12.5486 103.114 12.5486C102.371 12.5486 101.707 12.7394 101.118 13.1195C100.544 13.4983 99.9968 14.0075 99.4759 14.65V21.4724C99.4759 21.8044 99.3502 22.0886 99.1052 22.3156C98.875 22.5425 98.5895 22.6561 98.2592 22.6561ZM98.9989 22.2058C99.2141 22.0072 99.3221 21.7628 99.3221 21.4724V14.5966C99.8615 13.9243 100.432 13.3896 101.032 12.9922C101.649 12.595 102.342 12.3964 103.114 12.3964C104.808 12.3964 105.656 13.3284 105.656 15.1925V21.4724C105.656 21.7628 105.756 22.0072 105.956 22.2058C106.156 22.4045 106.403 22.5038 106.696 22.5038C106.989 22.5038 107.235 22.4045 107.436 22.2058C107.652 22.0072 107.76 21.7628 107.76 21.4724V14.9633C107.76 14.1382 107.59 13.3819 107.251 12.6944C106.928 12.0067 106.45 11.4643 105.817 11.067C105.202 10.6698 104.469 10.4711 103.622 10.4711C102.697 10.4711 101.896 10.6621 101.218 11.0441C100.599 11.393 100.018 11.85 99.4759 12.4155C99.424 12.4692 99.3731 12.524 99.3221 12.5797V11.64C99.3221 11.3498 99.2141 11.1053 98.9989 10.9066C98.7986 10.6927 98.5517 10.5857 98.2592 10.5857C97.9658 10.5857 97.7198 10.6927 97.5187 10.9066C97.3184 11.1053 97.2182 11.3498 97.2182 11.64V21.4724C97.2182 21.7628 97.3184 22.0072 97.5187 22.2058C97.7198 22.4045 97.9658 22.5038 98.2592 22.5038C98.5517 22.5038 98.7986 22.4045 98.9989 22.2058Z" fill="#969FA4"/>
<path d="M114.904 22.5037C114.611 22.5037 114.365 22.4044 114.164 22.2057C113.964 22.0071 113.863 21.7627 113.863 21.4723V8.33953H109.148C108.87 8.33953 108.639 8.24786 108.455 8.06451C108.269 7.88115 108.177 7.65196 108.177 7.37692C108.177 7.10189 108.269 6.87269 108.455 6.68934C108.639 6.4907 108.87 6.39139 109.148 6.39139H120.66C120.938 6.39139 121.169 6.4907 121.353 6.68934C121.553 6.87269 121.654 7.10189 121.654 7.37692C121.654 7.65196 121.553 7.88115 121.353 8.06451C121.169 8.24786 120.938 8.33953 120.66 8.33953H115.967V21.4723C115.967 21.7627 115.859 22.0071 115.644 22.2057C115.444 22.4044 115.197 22.5037 114.904 22.5037Z" fill="#969FA4"/>
<path d="M127.57 22.6183C125.69 22.6183 124.218 22.0911 123.155 21.0368C122.107 19.9673 121.583 18.4699 121.583 16.5446C121.583 15.4599 121.784 14.459 122.184 13.5422C122.585 12.6255 123.201 11.8844 124.033 11.3191C124.865 10.7538 125.89 10.471 127.108 10.471C128.248 10.471 129.235 10.7384 130.067 11.2732C130.899 11.7927 131.531 12.4956 131.962 13.3818C132.394 14.2528 132.61 15.2077 132.61 16.2467C132.61 16.5371 132.51 16.7815 132.309 16.9801C132.124 17.1788 131.87 17.2781 131.546 17.2781H123.709C123.833 18.3476 124.234 19.1804 124.912 19.7763C125.59 20.3722 126.538 20.6702 127.755 20.6702C128.402 20.6702 128.965 20.609 129.442 20.4868C129.936 20.3645 130.414 20.1889 130.876 19.9597C130.999 19.8986 131.137 19.868 131.292 19.868C131.538 19.868 131.754 19.952 131.939 20.1201C132.124 20.2882 132.216 20.5021 132.216 20.7619C132.216 21.098 132.016 21.3807 131.615 21.6098C131.014 21.946 130.421 22.1981 129.836 22.3662C129.25 22.5343 128.495 22.6183 127.57 22.6183ZM130.529 15.5821C130.483 14.8334 130.283 14.2069 129.928 13.7027C129.589 13.1985 129.165 12.8317 128.657 12.6026C128.148 12.3581 127.632 12.2359 127.108 12.2359C126.584 12.2359 126.068 12.3581 125.559 12.6026C125.051 12.8317 124.626 13.1985 124.287 13.7027C123.948 14.2069 123.756 14.8334 123.709 15.5821H130.529Z" fill="#969FA4"/>
<path d="M140.848 22.6183C139.738 22.6183 138.714 22.3739 137.774 21.8849C136.833 21.3959 136.079 20.6931 135.509 19.7763C134.953 18.8595 134.676 17.7823 134.676 16.5446C134.676 15.307 134.953 14.2298 135.509 13.313C136.079 12.3963 136.833 11.6934 137.774 11.2045C138.714 10.7155 139.738 10.471 140.848 10.471C141.665 10.471 142.366 10.578 142.952 10.7919C143.553 10.9906 144.108 11.2503 144.616 11.5712C144.925 11.7698 145.078 12.0372 145.078 12.3733C145.078 12.6026 144.986 12.8165 144.801 13.0151C144.631 13.1985 144.431 13.2901 144.2 13.2901C144.03 13.2901 143.861 13.2443 143.691 13.1526C143.183 12.8929 142.743 12.7095 142.374 12.6026C142.02 12.4803 141.573 12.4192 141.033 12.4192C139.708 12.4192 138.667 12.8012 137.912 13.5652C137.157 14.3138 136.78 15.307 136.78 16.5446C136.78 17.7823 137.157 18.7831 137.912 19.5471C138.667 20.2958 139.708 20.6702 141.033 20.6702C141.573 20.6702 142.02 20.6167 142.374 20.5097C142.743 20.3875 143.183 20.1965 143.691 19.9367C143.861 19.8451 144.03 19.7992 144.2 19.7992C144.431 19.7992 144.631 19.8986 144.801 20.0971C144.986 20.2806 145.078 20.4868 145.078 20.716C145.078 21.0522 144.925 21.3196 144.616 21.5182C144.108 21.8391 143.553 22.1065 142.952 22.3204C142.366 22.519 141.665 22.6183 140.848 22.6183Z" fill="#969FA4"/>
<path d="M148.758 22.5037C148.466 22.5037 148.219 22.4044 148.019 22.2057C147.818 22.0071 147.718 21.7627 147.718 21.4723V6.59766C147.718 6.30735 147.818 6.06287 148.019 5.86424C148.219 5.65033 148.466 5.54337 148.758 5.54337C149.052 5.54337 149.298 5.65033 149.498 5.86424C149.714 6.06287 149.822 6.30735 149.822 6.59766V12.5796C150.408 11.9379 151.04 11.426 151.718 11.044C152.396 10.662 153.197 10.471 154.121 10.471C154.969 10.471 155.702 10.6697 156.317 11.0669C156.95 11.4642 157.427 12.0066 157.751 12.6943C158.09 13.3818 158.26 14.1381 158.26 14.9632V21.4723C158.26 21.7627 158.152 22.0071 157.936 22.2057C157.735 22.4044 157.489 22.5037 157.196 22.5037C156.903 22.5037 156.657 22.4044 156.456 22.2057C156.256 22.0071 156.156 21.7627 156.156 21.4723V15.1925C156.156 13.3283 155.308 12.3963 153.614 12.3963C152.842 12.3963 152.149 12.5949 151.533 12.9921C150.932 13.3895 150.362 13.9242 149.822 14.5965V21.4723C149.822 21.7627 149.714 22.0071 149.498 22.2057C149.298 22.4044 149.052 22.5037 148.758 22.5037Z" fill="#969FA4"/>
<path fill-rule="evenodd" clip-rule="evenodd" d="M123.044 21.1431C121.961 20.0375 121.429 18.4976 121.429 16.5447C121.429 15.4409 121.633 14.4192 122.043 13.4817C122.455 12.5386 123.09 11.7751 123.946 11.1935C124.809 10.6074 125.866 10.3188 127.108 10.3188C128.273 10.3188 129.288 10.5922 130.149 11.1449C131.006 11.6797 131.656 12.4041 132.1 13.3153C132.543 14.2085 132.762 15.1865 132.762 16.2468C132.762 16.575 132.648 16.8579 132.42 17.0858C132.2 17.32 131.902 17.4305 131.546 17.4305H123.884C124.025 18.3878 124.405 19.1273 125.014 19.6624C125.655 20.2262 126.561 20.5179 127.754 20.5179C128.393 20.5179 128.942 20.4577 129.404 20.3394L129.405 20.3391C129.887 20.2196 130.355 20.0479 130.807 19.8235C130.954 19.7506 131.116 19.7158 131.292 19.7158C131.577 19.7158 131.83 19.8146 132.042 20.0079C132.261 20.2062 132.37 20.4617 132.37 20.762C132.37 21.1717 132.12 21.4967 131.692 21.7419L131.691 21.7426C131.08 22.0838 130.477 22.3409 129.878 22.5126C129.273 22.6861 128.502 22.7707 127.57 22.7707C125.659 22.7707 124.145 22.2343 123.046 21.1447L123.044 21.1431ZM123.729 17.4305C123.721 17.3803 123.715 17.3295 123.709 17.2782H131.546C131.869 17.2782 132.124 17.1789 132.308 16.9802C132.509 16.7816 132.609 16.5372 132.609 16.2468C132.609 15.2078 132.393 14.2528 131.962 13.3819C131.53 12.4957 130.898 11.7928 130.066 11.2733C129.234 10.7385 128.248 10.4711 127.108 10.4711C125.89 10.4711 124.865 10.7538 124.033 11.3191C123.2 11.8845 122.585 12.6256 122.183 13.5423C121.783 14.4591 121.582 15.46 121.582 16.5447C121.582 18.47 122.107 19.9674 123.155 21.0369C124.218 22.0912 125.69 22.6184 127.57 22.6184C128.494 22.6184 129.25 22.5344 129.835 22.3663C130.42 22.1982 131.014 21.9461 131.615 21.6099C132.016 21.3808 132.216 21.0981 132.216 20.762C132.216 20.5022 132.124 20.2882 131.938 20.1202C131.754 19.9521 131.538 19.8681 131.292 19.8681C131.137 19.8681 130.998 19.8987 130.876 19.9597C130.413 20.189 129.936 20.3646 129.442 20.4869C128.964 20.6091 128.402 20.6703 127.754 20.6703C126.537 20.6703 125.59 20.3723 124.912 19.7764C124.266 19.2091 123.872 18.4271 123.729 17.4305ZM129.799 13.7873C129.475 13.3044 129.073 12.9577 128.592 12.7413L128.589 12.7397C128.1 12.5045 127.607 12.3882 127.108 12.3882C126.609 12.3882 126.115 12.5045 125.626 12.7397L125.622 12.7413C125.142 12.9577 124.74 13.3044 124.415 13.7873C124.118 14.2286 123.937 14.7741 123.875 15.4298H130.362C130.3 14.7754 130.111 14.2308 129.801 13.7899L129.799 13.7873ZM130.517 15.4298C130.522 15.48 130.526 15.5308 130.529 15.5821H123.709C123.713 15.5308 123.716 15.48 123.721 15.4298C123.783 14.7481 123.972 14.1724 124.287 13.7028C124.626 13.1986 125.05 12.8318 125.558 12.6027C126.067 12.3582 126.583 12.2359 127.108 12.2359C127.631 12.2359 128.148 12.3582 128.657 12.6027C129.165 12.8318 129.589 13.1986 129.928 13.7028C130.258 14.1724 130.454 14.7481 130.517 15.4298ZM135.378 19.8563L135.377 19.8548C134.805 18.9108 134.522 17.8056 134.522 16.5447C134.522 15.2839 134.805 14.1788 135.377 13.2348L135.378 13.2331C135.962 12.2937 136.737 11.5716 137.702 11.0697C138.665 10.5688 139.715 10.3188 140.848 10.3188C141.676 10.3188 142.396 10.4271 143.003 10.6483C143.614 10.8505 144.18 11.1153 144.698 11.4428L144.7 11.4436C145.047 11.6675 145.232 11.9808 145.232 12.3734C145.232 12.6477 145.12 12.8971 144.914 13.1185C144.718 13.3301 144.477 13.4425 144.2 13.4425C144.001 13.4425 143.808 13.3889 143.619 13.2873C143.117 13.0305 142.687 12.852 142.331 12.7489L142.327 12.7478L142.324 12.7464C141.991 12.6317 141.562 12.5716 141.033 12.5716C139.739 12.5716 138.742 12.9436 138.022 13.6719L138.021 13.673C137.3 14.3882 136.933 15.3402 136.933 16.5447C136.933 17.7489 137.299 18.709 138.021 19.4399C138.741 20.1532 139.738 20.5179 141.033 20.5179C141.562 20.5179 141.992 20.4654 142.327 20.3646C142.686 20.2458 143.117 20.059 143.619 19.8022C143.808 19.7006 144.001 19.647 144.2 19.647C144.48 19.647 144.72 19.7694 144.914 19.994C145.121 20.2009 145.232 20.443 145.232 20.7161C145.232 21.1088 145.047 21.4221 144.7 21.646L144.698 21.6468C144.18 21.974 143.615 22.2463 143.003 22.4638L143.001 22.4645C142.396 22.6701 141.676 22.7707 140.848 22.7707C139.715 22.7707 138.665 22.5208 137.702 22.0198C136.737 21.5179 135.962 20.7958 135.378 19.8563ZM144.801 20.0972C144.631 19.8987 144.431 19.7993 144.2 19.7993C144.03 19.7993 143.861 19.8452 143.691 19.9368C143.183 20.1966 142.743 20.3875 142.374 20.5098C142.02 20.6168 141.572 20.6703 141.033 20.6703C139.707 20.6703 138.667 20.2959 137.912 19.5472C137.157 18.7832 136.78 17.7824 136.78 16.5447C136.78 15.3071 137.157 14.3139 137.912 13.5652C138.667 12.8012 139.707 12.4193 141.033 12.4193C141.572 12.4193 142.02 12.4804 142.374 12.6027C142.743 12.7096 143.183 12.8929 143.691 13.1527C143.861 13.2444 144.03 13.2902 144.2 13.2902C144.431 13.2902 144.631 13.1986 144.801 13.0151C144.986 12.8166 145.078 12.6027 145.078 12.3734C145.078 12.0373 144.924 11.7699 144.616 11.5713C144.108 11.2504 143.552 10.9907 142.952 10.792C142.366 10.5781 141.665 10.4711 140.848 10.4711C139.738 10.4711 138.713 10.7156 137.773 11.2046C136.833 11.6934 136.079 12.3963 135.508 13.3131C134.953 14.2299 134.676 15.3071 134.676 16.5447C134.676 17.7824 134.953 18.8596 135.508 19.7764C136.079 20.6932 136.833 21.396 137.773 21.885C138.713 22.374 139.738 22.6184 140.848 22.6184C141.665 22.6184 142.366 22.5191 142.952 22.3205C143.552 22.1066 144.108 21.8392 144.616 21.5182C144.924 21.3196 145.078 21.0523 145.078 20.7161C145.078 20.4869 144.986 20.2806 144.801 20.0972ZM114.903 22.6561C114.571 22.6561 114.286 22.5418 114.056 22.3136C113.826 22.0853 113.71 21.8016 113.71 21.4724V8.49195H109.148C108.832 8.49195 108.561 8.38609 108.346 8.1723C108.13 7.95851 108.023 7.68972 108.023 7.37701C108.023 7.06535 108.13 6.79732 108.343 6.58388C108.558 6.35488 108.83 6.23916 109.148 6.23916H120.66C120.977 6.23916 121.248 6.35413 121.462 6.58165C121.691 6.79377 121.807 7.06237 121.807 7.37701C121.807 7.69268 121.69 7.96201 121.459 8.17444C121.244 8.38679 120.974 8.49195 120.66 8.49195H116.121V21.4724C116.121 21.8044 115.995 22.0886 115.75 22.3155C115.52 22.5425 115.235 22.6561 114.903 22.6561ZM115.643 22.2059C115.859 22.0072 115.967 21.7627 115.967 21.4724V8.33962H120.66C120.938 8.33962 121.169 8.24794 121.353 8.0646C121.553 7.88124 121.654 7.65205 121.654 7.37701C121.654 7.10198 121.553 6.87278 121.353 6.68943C121.169 6.49079 120.938 6.39148 120.66 6.39148H109.148C108.87 6.39148 108.639 6.49079 108.455 6.68943C108.269 6.87278 108.177 7.10198 108.177 7.37701C108.177 7.65205 108.269 7.88124 108.455 8.0646C108.639 8.24794 108.87 8.33962 109.148 8.33962H113.863V21.4724C113.863 21.7627 113.964 22.0072 114.164 22.2059C114.364 22.4045 114.611 22.5038 114.903 22.5038C115.197 22.5038 115.443 22.4045 115.643 22.2059ZM148.758 22.6561C148.426 22.6561 148.141 22.5418 147.91 22.3136C147.679 22.0853 147.564 21.8016 147.564 21.4724V6.59776C147.564 6.2695 147.679 5.9865 147.908 5.7586C148.137 5.51522 148.423 5.39114 148.758 5.39114C149.092 5.39114 149.378 5.51453 149.607 5.75656C149.851 5.98319 149.976 6.26669 149.976 6.59776V12.1964C150.495 11.6733 151.05 11.2447 151.641 10.9117C152.347 10.5144 153.175 10.3188 154.121 10.3188C154.993 10.3188 155.756 10.5235 156.401 10.9388C157.057 11.3518 157.553 11.9162 157.889 12.6285C158.239 13.3383 158.413 14.1174 158.413 14.9633V21.4724C158.413 21.8044 158.288 22.0886 158.043 22.3156C157.812 22.5425 157.527 22.6561 157.196 22.6561C156.864 22.6561 156.577 22.5418 156.347 22.3135C156.117 22.0853 156.002 21.8016 156.002 21.4724V15.1925C156.002 14.2803 155.795 13.6246 155.405 13.1974C155.02 12.7733 154.432 12.5487 153.613 12.5487C152.871 12.5487 152.207 12.7394 151.617 13.1195C151.044 13.4983 150.497 14.0075 149.976 14.65V21.4724C149.976 21.8044 149.85 22.0885 149.605 22.3155C149.375 22.5425 149.089 22.6561 148.758 22.6561ZM149.498 22.2059C149.714 22.0072 149.822 21.7627 149.822 21.4724V14.5966C150.361 13.9243 150.931 13.3895 151.532 12.9922C152.149 12.595 152.842 12.3963 153.613 12.3963C155.308 12.3963 156.156 13.3284 156.156 15.1925V21.4724C156.156 21.7627 156.256 22.0072 156.456 22.2059C156.656 22.4045 156.903 22.5038 157.196 22.5038C157.488 22.5038 157.735 22.4045 157.935 22.2059C158.151 22.0072 158.26 21.7627 158.26 21.4724V14.9633C158.26 14.1383 158.09 13.3819 157.751 12.6943C157.427 12.0067 156.949 11.4643 156.317 11.067C155.701 10.6698 154.969 10.4711 154.121 10.4711C153.197 10.4711 152.395 10.6621 151.718 11.0441C151.098 11.393 150.518 11.85 149.976 12.4155C149.924 12.4692 149.873 12.524 149.822 12.5797V6.59776C149.822 6.30744 149.714 6.06296 149.498 5.86433C149.298 5.65042 149.052 5.54346 148.758 5.54346C148.466 5.54346 148.219 5.65042 148.019 5.86433C147.818 6.06296 147.718 6.30744 147.718 6.59776V21.4724C147.718 21.7627 147.818 22.0072 148.019 22.2059C148.219 22.4045 148.466 22.5038 148.758 22.5038C149.052 22.5038 149.298 22.4045 149.498 22.2059Z" fill="#969FA4"/>
</g>
<defs>
<clipPath id="clip0_286_99">
<rect width="159" height="27" fill="white"/>
</clipPath>
</defs>
</svg>
